<svg width="100%" height="100%" viewBox="0 0 256 256"
    style="fill-rule:evenodd;">
    <path
        d="M104.028,90.178c27.048,-0 49.008,21.96 49.008,49.008c0,27.049 -21.96,49.008 -49.008,49.008c-27.049,0 -49.009,-21.959 -49.009,-49.008c0,-27.048 21.96,-49.008 49.009,-49.008Zm-0,12.689c20.045,-0 36.319,16.274 36.319,36.319c0,20.045 -16.274,36.32 -36.319,36.32c-20.046,-0 -36.32,-16.275 -36.32,-36.32c0,-20.045 16.274,-36.319 36.32,-36.319Z"
        style="fill:#fff;" />
    <path
        d="M104.028,115.834c12.888,0 23.352,10.464 23.352,23.352c-0,12.888 -10.464,23.352 -23.352,23.352c-12.889,-0 -23.352,-10.464 -23.352,-23.352c-0,-12.888 10.463,-23.352 23.352,-23.352Zm-0,7.8c8.583,0 15.552,6.969 15.552,15.552c-0,8.583 -6.969,15.552 -15.552,15.552c-8.584,-0 -15.552,-6.969 -15.552,-15.552c-0,-8.583 6.968,-15.552 15.552,-15.552Z"
        style="fill:#fff;" />
    <path
        d="M120.777,47.684c4.377,-5.855 9.211,-16.759 16.106,-21.54c-4.219,9.991 -0.679,24.804 2.847,32.641c1.323,2.942 3.384,5.485 6.425,6.563c35.741,12.663 35.914,25.792 42.89,36.637c5.986,9.305 11.193,17.801 24.989,25.641l15.009,8.529c1.703,14.422 -0.666,24.669 -5.671,32.124c-5.526,8.23 -13.944,12.903 -22.011,16.455c-8.527,3.754 -16.872,6.321 -22.781,9.221c-6.534,3.207 -12.508,9.836 -16.581,18.482c-3.571,7.582 -5.715,16.682 -5.905,25.546c-0,0 -89.768,-0.898 -125.046,-1.25c5.131,-25.769 -1.117,-68.933 3.547,-92.36c3.299,-16.571 6.26,-21.117 20.424,-42.74l-10.145,-22.049c-16.318,24.911 -26.352,41.751 -30.757,60.712c-6.376,27.444 0.846,75.117 -8.583,115.704l169.549,0c0,-14.873 0.13,-27.062 5.805,-34.665c2.544,-3.408 3.983,-7.209 6.89,-8.636c6.777,-3.325 16.824,-6.179 26.597,-10.996c11.675,-5.754 22.845,-14.046 29.628,-27.405c5.656,-11.139 8.393,-26 4.933,-46.438c-0.524,-3.092 -2.409,-5.785 -5.135,-7.334c-0,-0 -4.09,-2.324 -19.451,-11.053c-9.957,-5.659 -13.424,-12.068 -17.745,-18.784c-8.148,-12.667 -11.261,-27.77 -50.539,-42.522c-6.34,-9.533 -5.212,-47.359 -9.275,-48.139c-5.08,-0.975 -27.403,23.677 -27.403,23.677c-0,0 1.036,17.885 1.389,23.979Z"
        style="fill:#fff;" />
    <path
        d="M93.917,54.444c1.993,-3.45 5.798,-4.394 8.031,-7.69c2.607,6.5 20.771,21.179 20.771,21.179c-13.761,-17.835 -7.052,-57.29 -10.924,-58.533c-3.872,-1.243 -20.333,15.79 -26.459,26.395l8.581,18.649Z"
        style="fill:#fff;" />
    <path
        d="M82.783,104.244l-14.899,6.855l-31.705,-68.909l34.873,-16.046l31.706,68.91l-14.9,6.855l-24.85,-54.011l-5.075,2.336l24.85,54.01Z"
        style="fill:#fff;" />
</svg>